<svg xmlns="http://www.w3.org/2000/svg" width="128" height="128" viewBox="0 0 128 128">
  <title>WINE BOTTLE</title>
  <g>
    <rect x="56.475" y="6.307" width="15.05" height="8.482" fill="#f07281"/>
    <path d="M58.159,14.789V40.323l-9.54,12.826a12,12,0,0,0-2.372,7.162v57.382a4,4,0,0,0,4,4H77.753a4,4,0,0,0,4-4V60.311a12,12,0,0,0-2.372-7.162l-9.54-12.826V14.789Z" fill="#7a6d79"/>
    <rect x="55.898" y="66" width="25.856" height="38.492" fill="#f07281"/>
    <rect x="58.159" y="14.789" width="11.682" height="12.534" fill="#eaf6ff"/>
    <g>
      <path d="M80.786,52.105l-3.994-5.368a1.75,1.75,0,1,0-2.808,2.089l3.993,5.368A10.313,10.313,0,0,1,80,60.311V64.25H55.9A1.75,1.75,0,0,0,54.148,66v38.492a1.75,1.75,0,0,0,1.75,1.75H80v11.451a2.252,2.252,0,0,1-2.25,2.25H50.247a2.252,2.252,0,0,1-2.25-2.25V107.645a1.75,1.75,0,0,0-3.5,0v10.048a5.757,5.757,0,0,0,5.75,5.75H77.753a5.757,5.757,0,0,0,5.75-5.75V60.311A13.842,13.842,0,0,0,80.786,52.105ZM57.648,102.742V67.75H80v34.992Z"/>
      <path d="M46.247,100.158A1.751,1.751,0,0,0,48,98.408v-4.5a1.75,1.75,0,0,0-3.5,0v4.5A1.751,1.751,0,0,0,46.247,100.158Z"/>
      <path d="M46.247,86A1.751,1.751,0,0,0,48,84.253V60.311a10.313,10.313,0,0,1,2.026-6.117l9.541-12.826a1.753,1.753,0,0,0,.345-1.045V29.073h8.182v11.25a1.75,1.75,0,0,0,3.5,0V16.532a1.746,1.746,0,0,0,1.684-1.743V6.307a1.751,1.751,0,0,0-1.75-1.75H56.475a1.751,1.751,0,0,0-1.75,1.75v8.482a1.746,1.746,0,0,0,1.684,1.743V39.744L47.214,52.105A13.842,13.842,0,0,0,44.5,60.311V84.253A1.751,1.751,0,0,0,46.247,86Zm13.662-60.43V16.539h8.182v9.034ZM58.225,8.057h11.55v4.982H58.225Z"/>
    </g>
  </g>
</svg>
