<?xml version="1.0" encoding="iso-8859-1"?>
<!-- Generator: Adobe Illustrator 16.0.0, SVG Export Plug-In . SVG Version: 6.00 Build 0)  -->
<!DOCTYPE svg PUBLIC "-//W3C//DTD SVG 1.1//EN" "http://www.w3.org/Graphics/SVG/1.1/DTD/svg11.dtd">
<svg version="1.1" id="Capa_1" xmlns="http://www.w3.org/2000/svg" xmlns:xlink="http://www.w3.org/1999/xlink" x="0px" y="0px"
	 width="50" height="50" viewBox="0 0 19.86 19.86" style="enable-background:new 0 0 19.86 19.86;" xml:space="preserve"
	>
<g>
	<path d="M13.299,15.84c-0.001-0.143-0.002-0.283-0.004-0.419c-0.024-1.808-0.124-2.97-0.188-3.716
		c-0.001-0.014-0.002-0.028-0.004-0.041l-0.03-0.354c-0.001-0.008-0.003-0.018-0.003-0.024c-0.04-0.406-0.333-1.498-0.704-2.88
		c-0.525-1.954-1.404-5.227-1.204-5.625c0.406-0.513,0.216-1.025,0.015-1.287c0.024-0.19,0.061-0.619-0.015-1
		C11.071,0.045,10.02,0,10.01,0C9.98,0,9.953,0.002,9.93,0.004C9.906,0.002,9.879,0,9.85,0C9.839,0,8.789,0.045,8.699,0.494
		c-0.076,0.381-0.039,0.81-0.015,1c-0.201,0.262-0.392,0.773,0.01,1.28C8.899,3.179,8.02,6.452,7.495,8.407
		c-0.371,1.381-0.664,2.473-0.704,2.88c-0.001,0.007-0.003,0.018-0.003,0.023l-0.03,0.354c-0.001,0.013-0.002,0.028-0.004,0.041
		c-0.065,0.746-0.164,1.905-0.189,3.716c-0.002,0.137-0.003,0.275-0.004,0.419c-0.006,0.858,0.004,1.847,0.041,2.997
		c0.02,0.212,0.078,0.848,2.759,0.999c0,0,0.384,0.028,0.564,0.022c0.19,0.005,0.585-0.023,0.585-0.023
		c2.671-0.152,2.729-0.787,2.75-1.011C13.295,17.68,13.306,16.695,13.299,15.84z M9.095,0.612c0.067-0.075,0.476-0.19,0.792-0.19
		c0.003,0,0.007,0,0.01,0l0.08,0.003l0.033-0.006c0.271,0,0.688,0.117,0.741,0.157c0.047,0.234,0.041,0.496,0.027,0.686H9.081
		C9.065,1.076,9.057,0.824,9.095,0.612z M9.027,2.521c-0.331-0.419-0.01-0.779,0.027-0.817L9.078,1.68h1.704l0.024,0.025
		c0.015,0.015,0.368,0.385,0.027,0.816c-0.272,0.344-0.007,1.691,0.771,4.652h-0.236c-0.129-0.501-0.713-0.87-1.438-0.87
		S8.62,6.671,8.491,7.173H8.257C9.034,4.212,9.299,2.865,9.027,2.521z M7.9,8.516c0.087-0.325,0.168-0.63,0.247-0.925h0.346
		c0.129,0.502,0.713,0.87,1.438,0.87s1.309-0.369,1.438-0.87h0.346c0.077,0.296,0.158,0.6,0.245,0.925
		c0.328,1.22,0.636,2.366,0.687,2.771H7.214C7.264,10.883,7.572,9.736,7.9,8.516z M12.841,18.799
		c-0.017,0.191-0.573,0.538-2.55,0.629l-0.126,0.018c-0.062,0-0.143-0.002-0.239-0.004c-0.057,0.002-0.109,0.002-0.155,0.004
		l-0.2-0.018c-1.976-0.091-2.533-0.438-2.549-0.615c-0.036-1.141-0.046-2.121-0.04-2.972h5.9
		C12.887,16.688,12.877,17.665,12.841,18.799z"/>
</g>
<g>
</g>
<g>
</g>
<g>
</g>
<g>
</g>
<g>
</g>
<g>
</g>
<g>
</g>
<g>
</g>
<g>
</g>
<g>
</g>
<g>
</g>
<g>
</g>
<g>
</g>
<g>
</g>
<g>
</g>
</svg>
